<svg data-v-0dd9719b="" version="1.0" xmlns="http://www.w3.org/2000/svg" xmlns:xlink="http://www.w3.org/1999/xlink" width="100%" height="100%" viewBox="0 0 340.000000 250.000000" preserveAspectRatio="xMidYMid meet" color-interpolation-filters="sRGB" style="margin: auto;"> <rect data-v-0dd9719b="" x="0" y="0" width="100%" height="100%" fill="#fff" fill-opacity="1" class="background"></rect> <rect data-v-0dd9719b="" x="0" y="0" width="100%" height="100%" fill="url(#watermark)" fill-opacity="1" class="watermarklayer"></rect> <g data-v-0dd9719b="" fill="#333" class="icon-text-wrapper icon-svg-group iconsvg" transform="translate(48.933982849121094,95.12220001220703)"><g class="iconsvg-imagesvg" transform="translate(0,0)"><g><rect fill="#333" fill-opacity="0" stroke-width="2" x="0" y="0" width="60" height="59.755599597645634" class="image-rect"></rect> <svg x="0" y="0" width="60" height="59.755599597645634" filtersec="colorsb7575280667" class="image-svg-svg primary" style="overflow: visible;"><svg xmlns="http://www.w3.org/2000/svg" viewBox="0.21616557240486145 0.21616390347480774 59.5676383972168 59.32520294189453"><g fill-rule="evenodd"><path d="M7.93 54.13a13.52 13.52 0 0 0 17.94-1l2.07 2.06A16.38 16.38 0 0 1 4.78 32.06L11 25.87 8.91 23.8a10.55 10.55 0 0 1 0-14.89 10.55 10.55 0 0 1 14.89 0L21.74 11A7.61 7.61 0 0 0 11 21.74l2 2.06 5.38-5.38 3.65-3.64L25.87 11l2.06 2-3.8 3.8-9 9 12.8 12.89-2.06 2.07L13 27.93l-6.2 6.2a13.52 13.52 0 0 0-1 17.94 12.55 12.55 0 0 0 2.06 2.06" fill="#f9be03"></path><path d="M54.13 52.07a13.52 13.52 0 0 0-1-17.94l2.06-2.07a16.38 16.38 0 0 1-23.13 23.16L25.87 49l-2.07 2.09a10.57 10.57 0 0 1-14.89 0 10.55 10.55 0 0 1 0-14.89L11 38.26A7.61 7.61 0 0 0 21.74 49l2.06-2-4.08-4.08-1.3-1.3-3.64-3.65L11 34.13l2-2.06 3.8 3.8 9 9 12.89-12.8 2.07 2.06L27.93 47l6.2 6.2a13.51 13.51 0 0 0 17.94 1 12.55 12.55 0 0 0 2.06-2.06" fill="#42c014"></path><path d="M52.07 5.87a13.52 13.52 0 0 0-17.94 1l-2.07-2.09a16.38 16.38 0 0 1 23.16 23.16L49 34.13l2.07 2.07a10.57 10.57 0 0 1 0 14.89 10.56 10.56 0 0 1-14.89 0L38.26 49A7.61 7.61 0 0 0 49 38.26l-2-2.06-5.38 5.38-3.65 3.64L34.13 49l-2.06-2 3.8-3.8 9-9-12.8-12.89 2.06-2.07L47 32.07l6.2-6.2a13.52 13.52 0 0 0 1-17.94 12.55 12.55 0 0 0-2.06-2.06" fill="#0098ff"></path><path d="M5.87 7.93a13.52 13.52 0 0 0 1 17.94l-2.09 2.07A16.38 16.38 0 0 1 27.94 4.78L34.13 11l2.07-2.09a10.55 10.55 0 0 1 14.89 0 10.56 10.56 0 0 1 0 14.89L49 21.74A7.61 7.61 0 0 0 38.26 11l-2.06 2 5.38 5.38 3.64 3.65 3.8 3.8-2.02 2.1-3.8-3.8-9-9-12.89 12.8-2.07-2.06L32.07 13l-6.2-6.2a13.52 13.52 0 0 0-17.94-1 12.55 12.55 0 0 0-2.06 2.13" fill="#ff5b00"></path></g></svg></svg> <!----></g></g> <g transform="translate(67,1.8615493774414062)"><g data-gra="path-name" fill-rule="" class="tp-name iconsvg-namesvg" transform="translate(0,0)"><g transform="scale(1)"><g><path d="M27.95 3.38L27.95 3.38Q26.32 3.38 26.32 1.75L26.32 1.75 26.32-9.99Q22.09-3.15 15.57 0.81L15.57 0.81Q14.22 1.48 13.32 0.4L13.32 0.4Q12.69-0.36 12.82-0.9 12.96-1.44 13.86-1.93L13.86-1.93Q16.88-3.65 19.64-6.28 22.41-8.91 24.3-11.92L24.3-11.92 15.79-11.92Q14.31-11.92 14.31-13.46L14.31-13.46Q14.31-14.94 15.79-14.94L15.79-14.94 26.32-14.94 26.32-18.36Q26.32-19.98 27.95-19.98L27.95-19.98Q29.56-19.98 29.56-18.36L29.56-18.36 29.56-14.94 40.91-14.94Q42.39-14.94 42.39-13.46L42.39-13.46Q42.39-11.92 40.91-11.92L40.91-11.92 31.77-11.92Q33.48-9.18 36-6.68 38.52-4.18 41.17-2.52L41.17-2.52Q42.21-1.98 42.32-1.4 42.43-0.81 41.71 0.04L41.71 0.04Q41.13 0.67 40.66 0.74 40.18 0.81 39.42 0.36L39.42 0.36Q36.67-1.53 34.06-4.41L34.06-4.41Q31.45-7.29 29.56-10.53L29.56-10.53 29.56 1.75Q29.56 3.38 27.95 3.38ZM7.02 1.4Q6.17 2.88 4.63 1.84L4.63 1.84Q3.28 0.81 4.05-0.4L4.05-0.4Q5.67-3.1 6.97-5.63L6.97-5.63Q8.37-8.28 9.99-11.7L9.99-11.7Q10.71-13.37 12.2-12.15L12.2-12.15Q13.23-11.29 12.73-10.17L12.73-10.17Q9.76-3.73 7.02 1.4L7.02 1.4ZM11.16-19.8Q10.21-18.18 8.87-19.17L8.87-19.17Q7.65-19.93 6.61-20.47L6.61-20.47Q6.34-20.61 5.8-20.88L5.8-20.88Q4.46-21.55 3.73-21.82L3.73-21.82Q2.16-22.45 3.1-23.94L3.1-23.94Q3.82-25.06 5.04-24.66L5.04-24.66Q8.41-23.4 10.93-21.82L10.93-21.82Q11.52-21.42 11.52-20.93L11.52-20.93Q11.56-20.47 11.16-19.8L11.16-19.8ZM17.86-19.44Q15.88-18.9 15.21-20.2L15.21-20.2 15.12-20.29Q14.26-21.29 16.06-21.78L16.06-21.78Q20.11-23.13 21.69-25.74L21.69-25.74Q23.04-27.99 23.31-32.8L23.31-32.8 18.81-32.8Q17.86-32.8 17.86-31.86L17.86-31.86 17.86-28.89Q17.86-27.45 16.43-27.45L16.43-27.45Q14.94-27.45 14.94-28.89L14.94-28.89 14.94-33.07Q14.94-34.24 15.66-34.96 16.38-35.68 17.55-35.68L17.55-35.68 39.46-35.68Q40.63-35.68 41.35-34.96 42.07-34.24 42.07-33.07L42.07-33.07 42.07-29.74Q42.07-28.21 40.55-28.21L40.55-28.21Q39.02-28.21 39.02-29.74L39.02-29.74 39.02-31.86Q39.02-32.8 38.07-32.8L38.07-32.8 33.66-32.8 33.66-24.34Q33.66-23.63 33.88-23.42 34.11-23.22 34.96-23.22L34.96-23.22 38.74-23.22Q39.38-23.22 39.6-23.67L39.6-23.67Q40-26.64 41.58-26.01L41.58-26.01Q42.61-25.61 42.39-23.45L42.39-23.45Q42.07-21.73 41.31-21.11L41.31-21.11Q40.59-20.47 39.06-20.47L39.06-20.47 34.56-20.47Q32.17-20.47 31.39-21.24 30.6-22 30.6-24.3L30.6-24.3 30.6-32.8 26.37-32.8Q26.01-27.13 24.39-24.34L24.39-24.34Q22.5-21.06 17.86-19.44L17.86-19.44ZM13.05-31Q11.92-29.47 10.71-30.6L10.71-30.6Q9.95-31.27 8.5-32.22L8.5-32.22Q7.38-32.98 5.67-33.93L5.67-33.93Q4.18-34.7 5.31-36.09L5.31-36.09Q6.12-37.08 7.25-36.54L7.25-36.54Q10.71-34.83 13-33.03L13-33.03Q13.54-32.53 13.54-32.09 13.54-31.63 13.05-31L13.05-31ZM63.67 1.3Q62.64 2.83 61.2 1.93L61.2 1.93Q59.67 0.94 60.84-0.81L60.84-0.81Q63.45-4.91 64.39-10.53L64.39-10.53Q65.11-14.63 65.11-21.15L65.11-21.15 65.11-34.74Q65.11-36.36 66.73-36.36L66.73-36.36Q68.36-36.36 68.36-34.74L68.36-34.74 68.36-21.11Q68.36-13.9 67.59-9.4L67.59-9.4Q66.51-3.19 63.67 1.3L63.67 1.3ZM84.28 2.83L84.28 2.83Q82.62 2.83 82.62 1.21L82.62 1.21 82.62-34.92Q82.62-36.54 84.28-36.54L84.28-36.54Q85.91-36.54 85.91-34.92L85.91-34.92 85.91 1.21Q85.91 2.83 84.28 2.83ZM75.47-2.34L75.47-2.34Q73.89-2.34 73.89-3.92L73.89-3.92 73.89-32.63Q73.89-34.2 75.47-34.2L75.47-34.2Q77.04-34.2 77.04-32.63L77.04-32.63 77.04-3.92Q77.04-2.34 75.47-2.34ZM49.59-3.06Q48.06-2.43 47.52-4.23L47.52-4.23Q47.02-5.89 48.47-6.39L48.47-6.39Q48.69-6.48 49.14-6.61L49.14-6.61Q51.8-7.51 53.28-8.1L53.28-8.1 53.28-23.45 49.37-23.45Q47.74-23.45 47.74-25.11L47.74-25.11Q47.74-26.73 49.37-26.73L49.37-26.73 53.28-26.73 53.28-35.5Q53.28-37.13 54.9-37.13L54.9-37.13Q56.52-37.13 56.52-35.5L56.52-35.5 56.52-26.73 60.39-26.73Q62.01-26.73 62.01-25.11L62.01-25.11Q62.01-23.45 60.39-23.45L60.39-23.45 56.52-23.45 56.52-9.27 60.16-10.66Q61.7-11.25 62.05-9.54L62.05-9.54Q62.33-8.23 61.06-7.65L61.06-7.65Q54.95-5.13 49.59-3.06L49.59-3.06ZM108.45 2.79Q107.69 3.28 107.17 3.22 106.65 3.15 106.06 2.43L106.06 2.43Q105.34 1.53 105.41 1.01 105.48 0.49 106.47-0.09L106.47-0.09Q112.28-3.96 116.59-11.12L116.59-11.12Q121.09-18.5 123.03-27.95L123.03-27.95 115.52-27.95Q113.22-21.46 110.34-16.74L110.34-16.74Q109.84-15.97 109.33-15.88 108.81-15.79 108-16.29L108-16.29Q107.14-16.83 107.01-17.32 106.88-17.82 107.46-18.63L107.46-18.63Q111.73-24.88 114.34-35.87L114.34-35.87Q114.53-36.67 115.06-37.1 115.61-37.53 116.41-37.35L116.41-37.35Q118.03-37.03 117.67-35.37L117.67-35.37Q117.18-33.39 116.5-31.14L116.5-31.14 124.11-31.14Q125.41-31.14 126.02-30.33 126.63-29.52 126.41-28.04L126.41-28.04Q125.46-22.9 123.75-18.22L123.75-18.22Q126.05-6.08 131.81-0.72L131.81-0.72Q132.62 0 132.66 0.58 132.7 1.17 131.99 1.98L131.99 1.98Q131.35 2.75 130.79 2.77 130.23 2.79 129.47 2.11L129.47 2.11Q124.42-2.83 121.72-13.32L121.72-13.32Q116.64-2.75 108.45 2.79L108.45 2.79ZM94.05-2.11Q93.19-1.93 92.81-2.27 92.43-2.61 92.25-3.51L92.25-3.51Q91.98-5.22 93.33-5.49L93.33-5.49Q93.96-5.63 95.27-5.94L95.27-5.94Q97.25-6.39 98.28-6.66L98.28-6.66 98.28-17.68 94.59-17.68Q93.02-17.68 93.02-19.3L93.02-19.3Q93.02-20.88 94.59-20.88L94.59-20.88 98.28-20.88 98.28-30.33 94.14-30.33Q92.52-30.33 92.52-31.95 92.52-33.57 94.14-33.57L94.14-33.57 105.48-33.57Q107.1-33.57 107.1-31.95 107.1-30.33 105.48-30.33L105.48-30.33 101.52-30.33 101.52-20.88 104.44-20.88Q106.02-20.88 106.02-19.3L106.02-19.3Q106.02-17.68 104.44-17.68L104.44-17.68 101.52-17.68 101.52-7.47Q102.91-7.79 105.8-8.5L105.8-8.5Q107.46-8.96 107.69-7.2L107.69-7.2Q107.82-5.71 106.34-5.31L106.34-5.31Q102.96-4.41 96.48-2.75L96.48-2.75Q94.81-2.34 94.05-2.11L94.05-2.11ZM165.38 3.42L165.38 3.42Q163.75 3.42 163.75 1.8L163.75 1.8 163.75-2.97 153.63-2.97Q152.24-2.97 152.24-4.37 152.24-5.76 153.63-5.76L153.63-5.76 163.75-5.76 163.75-9.04 157.72-9.04Q156.56-9.04 155.84-9.76 155.12-10.48 155.12-11.65L155.12-11.65 155.12-19.3Q155.12-20.47 155.84-21.2 156.56-21.91 157.72-21.91L157.72-21.91 173.2-21.91Q174.38-21.91 175.09-21.2 175.81-20.47 175.81-19.3L175.81-19.3 175.81-11.65Q175.81-10.48 175.09-9.76 174.38-9.04 173.2-9.04L173.2-9.04 167-9.04 167-5.76 176.44-5.76Q177.84-5.76 177.84-4.37 177.84-2.97 176.44-2.97L176.44-2.97 167-2.97 167 1.8Q167 3.42 165.38 3.42ZM145.75 3.38L145.75 3.38Q144.18 3.38 144.18 1.84L144.18 1.84 144.18-17.55Q142.06-10.66 139.59-6.61L139.59-6.61Q139-5.67 138.53-5.74 138.06-5.8 137.47-6.84L137.47-6.84Q137.12-7.47 137.12-7.88L137.12-7.88Q137.07-8.37 137.47-8.91L137.47-8.91Q139.37-11.83 141.16-16.25L141.16-16.25Q142.88-20.61 143.87-24.93L143.87-24.93 139.19-24.93Q137.66-24.93 137.66-26.5L137.66-26.5Q137.66-28.04 139.19-28.04L139.19-28.04 144.18-28.04 144.18-36.13Q144.18-37.66 145.75-37.66L145.75-37.66Q147.28-37.66 147.28-36.13L147.28-36.13 147.28-28.04 150.48-28.04Q152.01-28.04 152.01-26.5L152.01-26.5Q152.01-24.93 150.48-24.93L150.48-24.93 147.28-24.93 147.28-21.51Q148.5-19.98 152.69-13.9L152.69-13.9Q152.95-13.5 152.91-13.18L152.91-13.18Q152.87-12.96 152.5-12.51L152.5-12.51Q152.41-12.38 152.37-12.33L152.37-12.33Q151.74-11.43 151.34-11.38L151.34-11.38Q150.88-11.34 150.44-12.2L150.44-12.2Q149-14.8 147.28-17.55L147.28-17.55 147.28 1.84Q147.28 3.38 145.75 3.38ZM159.07-11.38L159.07-11.38 171.72-11.38Q172.66-11.38 172.66-12.33L172.66-12.33 172.66-14.49 158.13-14.49 158.13-12.33Q158.13-11.38 159.07-11.38ZM158.13-18.63L158.13-16.56 172.66-16.56 172.66-18.63Q172.66-19.57 171.72-19.57L171.72-19.57 159.07-19.57Q158.13-19.57 158.13-18.63L158.13-18.63ZM176.53-24.48L154.03-24.48Q152.69-24.48 152.69-25.88L152.69-25.88Q152.69-27.22 154.03-27.22L154.03-27.22 159.21-27.22Q158.76-29.34 157.91-31.14L157.91-31.14Q157.81-31.36 158.09-31.41L158.09-31.41 158.22-31.45 155.12-31.45Q153.76-31.45 153.76-32.8 153.76-34.16 155.12-34.16L155.12-34.16 163.75-34.16 163.75-36.05Q163.75-37.66 165.38-37.66L165.38-37.66Q167-37.66 167-36.05L167-36.05 167-34.16 175.77-34.16Q177.12-34.16 177.12-32.8 177.12-31.45 175.77-31.45L175.77-31.45 172.75-31.45 173.16-31.36Q173.3-31.27 173.25-31.18L173.25-31.18Q171.99-28.39 171.36-27.22L171.36-27.22 176.53-27.22Q177.88-27.22 177.88-25.88L177.88-25.88Q177.88-24.48 176.53-24.48L176.53-24.48ZM162.22-27.22L162.22-27.22 168.39-27.22Q169.2-28.93 170.06-31.45L170.06-31.45 160.78-31.45Q161.73-29.29 162.22-27.22Z" transform="translate(-2.7479681968688965, 37.65999984741211)"></path></g> <!----> <!----> <!----> <!----> <!----> <!----> <!----></g></g> <g data-gra="path-slogan" fill-rule="" class="tp-slogan iconsvg-slogansvg" fill="#333" transform="translate(23.905193328857422,47.08000183105469)"><!----> <!----> <g transform="scale(1, 1)"><g transform="scale(1)"><path d="M7.17-6.09L7.17-6.09L6.09-6.09Q6-7.73 3.94-7.83L3.94-7.83Q2.02-7.78 2.02-6.33L2.02-6.33Q2.02-5.39 3.05-5.25L3.05-5.25L5.48-4.69Q7.41-4.22 7.41-2.34L7.41-2.34Q7.36 0.05 4.03 0.14L4.03 0.14Q2.20 0.14 1.45-0.61L1.45-0.61Q0.52-1.31 0.56-2.77L0.56-2.77L1.69-2.77Q1.73-0.80 4.03-0.75L4.03-0.75Q6.28-0.80 6.33-2.20L6.33-2.20Q6.52-3.38 4.45-3.75L4.45-3.75L2.67-4.13Q0.84-4.64 0.84-6.19L0.84-6.19Q0.98-8.72 3.84-8.81L3.84-8.81Q7.08-8.81 7.17-6.09ZM10.03-5.06L14.53-5.06L14.53-8.58L15.70-8.58L15.70 0L14.53 0L14.53-3.98L10.03-3.98L10.03 0L8.86 0L8.86-8.58L10.03-8.58L10.03-5.06ZM18.80-1.03L23.95-1.03L23.95 0L17.63 0L17.63-8.58L23.86-8.58L23.86-7.59L18.80-7.59L18.80-4.92L23.48-4.92L23.48-3.89L18.80-3.89L18.80-1.03ZM26.86-8.58L31.17-1.64L31.17-8.58L32.30-8.58L32.30 0L30.98 0L26.63-6.94L26.58-6.94L26.58 0L25.45 0L25.45-8.58L26.86-8.58ZM34.92-1.03L40.22-1.03L40.22 0L33.47 0L33.47-0.94L38.72-7.59L33.84-7.59L33.84-8.58L40.22-8.58L40.22-7.59L34.92-1.03ZM42.52-5.06L47.02-5.06L47.02-8.58L48.19-8.58L48.19 0L47.02 0L47.02-3.98L42.52-3.98L42.52 0L41.34 0L41.34-8.58L42.52-8.58L42.52-5.06ZM51.28-1.03L56.44-1.03L56.44 0L50.11 0L50.11-8.58L56.34-8.58L56.34-7.59L51.28-7.59L51.28-4.92L55.97-4.92L55.97-3.89L51.28-3.89L51.28-1.03ZM59.34-8.58L63.66-1.64L63.66-8.58L64.78-8.58L64.78 0L63.47 0L59.11-6.94L59.06-6.94L59.06 0L57.94 0L57.94-8.58L59.34-8.58ZM69.19-1.92L69.19-2.77L70.27-2.77L70.27-2.16Q70.27-0.75 71.58-0.75L71.58-0.75Q72.94-0.75 72.94-2.25L72.94-2.25L72.94-8.58L74.11-8.58L74.11-2.30Q74.06 0.09 71.63 0.14L71.63 0.14Q69.33 0.09 69.19-1.92L69.19-1.92ZM76.08-8.58L77.25-8.58L77.25 0L76.08 0L76.08-8.58ZM84.89-3.19L84.89-8.58L86.06-8.58L86.06-3.05Q85.92 0.05 82.55 0.14L82.55 0.14Q79.41 0.05 79.27-2.86L79.27-2.86L79.27-8.58L80.44-8.58L80.44-3.19Q80.48-0.84 82.59-0.80L82.59-0.80Q84.89-0.84 84.89-3.19L84.89-3.19ZM88.69-1.03L93.98-1.03L93.98 0L87.23 0L87.23-0.94L92.48-7.59L87.61-7.59L87.61-8.58L93.98-8.58L93.98-7.59L88.69-1.03ZM96.28-5.06L100.78-5.06L100.78-8.58L101.95-8.58L101.95 0L100.78 0L100.78-3.98L96.28-3.98L96.28 0L95.11 0L95.11-8.58L96.28-8.58L96.28-5.06ZM109.41 0L108.56-2.48L105.09-2.48L104.20 0L103.03 0L106.27-8.58L107.58-8.58L110.67 0L109.41 0ZM106.83-7.31L105.47-3.52L108.14-3.52L106.88-7.31L106.83-7.31ZM113.11-8.58L117.42-1.64L117.42-8.58L118.55-8.58L118.55 0L117.23 0L112.88-6.94L112.83-6.94L112.83 0L111.70 0L111.70-8.58L113.11-8.58ZM126.75-3.61L124.13-3.61L124.13-4.59L127.88-4.59L127.88 0L127.13 0L126.84-1.08Q125.86 0.09 124.03 0.14L124.03 0.14Q122.30 0.14 121.36-0.75L121.36-0.75Q119.95-2.06 120-4.36L120-4.36Q120.33-8.63 124.08-8.81L124.08-8.81Q127.27-8.63 127.73-6L127.73-6L126.61-6Q126.14-7.78 124.03-7.83L124.03-7.83Q121.36-7.64 121.22-4.31L121.22-4.31Q121.22-0.75 124.08-0.75L124.08-0.75Q125.11-0.75 125.86-1.31L125.86-1.31Q126.80-2.06 126.75-3.61L126.75-3.61Z" transform="translate(-0.5602678571428572, 8.8125)"></path></g></g></g></g></g><defs v-gra="od"></defs></svg>